<?xml version="1.0" encoding="utf-8"?>
<!-- Generator: Adobe Illustrator 23.0.2, SVG Export Plug-In . SVG Version: 6.00 Build 0)  -->
<svg version="1.1" id="Layer_1" xmlns="http://www.w3.org/2000/svg" xmlns:xlink="http://www.w3.org/1999/xlink" x="0px" y="0px"
	 viewBox="0 0 140 140" style="enable-background:new 0 0 140 140;" xml:space="preserve">
<style type="text/css">
	.st0{opacity:0.64;}
	.st1{fill:url(#SVGID_1_);}
	.st2{opacity:0.6;}
	.st3{opacity:0.74;fill:#009245;stroke:#009245;stroke-width:2;stroke-linecap:square;stroke-miterlimit:10;}
	.st4{font-family:'Verdana';}
	.st5{font-size:41.6079px;}
	.st6{opacity:0.67;fill:#F15A24;stroke:#F15A24;stroke-width:2;stroke-linecap:square;stroke-miterlimit:10;}
	.st7{opacity:0.75;fill:#0071BC;stroke:#0071BC;stroke-width:2;stroke-linecap:square;stroke-miterlimit:10;}
	.st8{opacity:0.71;fill:#666666;stroke:#666666;stroke-width:2;stroke-linecap:square;stroke-miterlimit:10;}
</style>
<g class="st0">
	<linearGradient id="SVGID_1_" gradientUnits="userSpaceOnUse" x1="11.1419" y1="42.4352" x2="127.7448" y2="42.4352">
		<stop  offset="0.3782" style="stop-color:#FF5A45"/>
		<stop  offset="0.6441" style="stop-color:#005B97"/>
		<stop  offset="0.8246" style="stop-color:#00B992"/>
		<stop  offset="1" style="stop-color:#4EB900"/>
		<stop  offset="1" style="stop-color:#CCE0F4"/>
		<stop  offset="1" style="stop-color:#C7DEEB"/>
		<stop  offset="1" style="stop-color:#BBD9D1"/>
		<stop  offset="1" style="stop-color:#A7D2A7"/>
		<stop  offset="1" style="stop-color:#8BC76E"/>
		<stop  offset="1" style="stop-color:#68B925"/>
		<stop  offset="1" style="stop-color:#58B304"/>
	</linearGradient>
	<path class="st1" d="M62.37,18c-2.74-0.07-5.48,0.34-8.05,1.23c-2.57,0.89-4.96,2.27-6.97,4.05c-2.02,1.77-3.66,3.94-4.75,6.34
		c-0.57,1.19-0.95,2.46-1.23,3.75c-0.16,0.64-0.18,1.31-0.29,1.97c-0.03,0.15-0.04,0.35-0.06,0.57l-0.04,0.64l-0.09,1.28l-0.02,0.24
		c-0.17,2.45-2.09,4.36-4.45,4.59c-2.83,0.29-4.15,0.41-5.93,1.14c-1.68,0.7-3.26,1.78-4.61,3.12c-1.34,1.34-2.46,2.95-3.19,4.69
		c-0.72,1.74-1.09,3.6-1.03,5.43c0.08,3.68,1.94,7.46,4.91,10.12c1.48,1.34,3.21,2.4,5.06,3.07c0.46,0.17,0.94,0.28,1.41,0.44
		c0.48,0.12,0.96,0.18,1.44,0.29c0.48,0.06,0.97,0.08,1.46,0.13c0.56,0.03,1.24,0.03,1.85,0.05L98,72.44L95.44,75l0.06-2.61l0-0.11
		c0.03-1.25,0.99-2.26,2.21-2.38l2.45-0.24c0.76-0.11,1.47-0.17,2.2-0.32c0.72-0.17,1.46-0.29,2.17-0.53l1.08-0.33l1.05-0.4
		c2.81-1.08,5.44-2.7,7.65-4.73c1.14-0.99,2.08-2.15,2.96-3.33c0.78-1.24,1.55-2.51,1.96-3.9c0.29-0.68,0.37-1.39,0.55-2.1
		c0.09-0.35,0.07-0.72,0.12-1.07c0.02-0.36,0.1-0.71,0.07-1.09c-0.05-0.74,0.01-1.51-0.13-2.24l-0.15-1.12
		c-0.06-0.37-0.17-0.73-0.25-1.1c-0.31-1.47-0.92-2.86-1.58-4.22c-0.76-1.3-1.57-2.59-2.63-3.69c-1-1.15-2.21-2.1-3.45-3
		c-1.3-0.81-2.65-1.57-4.11-2.08c-2.89-1.08-6.06-1.52-9.18-1.28c-1.55,0.13-3.08,0.46-4.59,0.95c-1.48,0.5-3.06,1.12-4.58,1.68
		l-0.03,0.01c-0.42,0.15-0.89-0.06-1.04-0.49c-0.01-0.04-0.03-0.08-0.03-0.12c-0.32-1.56-0.57-3.2-0.97-4.68
		c-0.36-1.52-0.95-2.97-1.61-4.39c-1.37-2.82-3.38-5.33-5.75-7.42c-4.75-4.19-11.08-6.59-17.51-6.72L62.37,18z M62.37,12
		c6.43-0.15,12.95,1.98,18.04,6.09c2.53,2.05,4.74,4.57,6.31,7.47c0.77,1.46,1.45,2.98,1.91,4.57c0.5,1.61,0.8,3.15,1.19,4.72
		l-1.11-0.59c1.53-0.63,2.98-1.29,4.58-1.9c1.59-0.59,3.26-1.04,4.98-1.25c3.41-0.42,6.91-0.08,10.21,0.98
		c1.66,0.5,3.23,1.29,4.74,2.15c1.46,0.95,2.89,1.99,4.1,3.26c1.27,1.22,2.3,2.67,3.25,4.17c0.85,1.55,1.63,3.16,2.08,4.89
		c0.11,0.43,0.26,0.85,0.35,1.29l0.23,1.32c0.19,0.87,0.18,1.77,0.26,2.66c0.05,0.44-0.02,0.91-0.02,1.37
		c-0.03,0.46-0.01,0.92-0.1,1.37c-0.17,0.9-0.27,1.82-0.57,2.69c-0.46,1.78-1.33,3.4-2.23,4.96c-1,1.49-2.09,2.93-3.38,4.16
		c-2.52,2.52-5.5,4.52-8.75,5.95l-1.22,0.53l-1.26,0.44c-0.83,0.32-1.71,0.52-2.58,0.75c-0.86,0.21-1.79,0.35-2.64,0.5l-2.44,0.34
		l2.21-2.48l0.06,2.61c0.03,1.38-1.07,2.52-2.45,2.55l-0.11,0l-60.21,1.28c-0.64,0.01-1.22,0.04-1.92,0.03
		c-0.76-0.03-1.53-0.03-2.29-0.1c-0.75-0.11-1.52-0.19-2.27-0.35c-0.74-0.19-1.49-0.34-2.21-0.58c-2.91-0.92-5.6-2.41-7.93-4.34
		c-4.65-3.83-7.98-9.55-8.45-15.94c-0.25-3.17,0.25-6.37,1.33-9.31c1.08-2.94,2.76-5.62,4.86-7.92c2.1-2.3,4.65-4.22,7.54-5.59
		c0.74-0.31,1.48-0.63,2.24-0.9c0.78-0.22,1.54-0.51,2.34-0.65c1.76-0.37,2.82-0.48,4.09-0.69l-4.46,4.83l0.03-1.29l0.02-0.64
		c0-0.2,0.01-0.43,0.04-0.71c0.1-1.05,0.13-2.11,0.32-3.14c0.35-2.08,0.88-4.14,1.69-6.1c1.58-3.92,4.02-7.46,7.04-10.35
		c3.01-2.9,6.59-5.17,10.45-6.71c3.86-1.54,8-2.33,12.13-2.41L62.37,12z"/>
</g>
<text transform="matrix(1.136 0 0 1 5 125.2236)" class="st2"><tspan x="0" y="0" class="st3 st4 st5">M</tspan><tspan x="35.07" y="0" class="st6 st4 st5">L</tspan><tspan x="58.23" y="0" class="st7 st4 st5">C</tspan><tspan x="87.28" y="0" class="st8 st4 st5">S</tspan></text>
</svg>
