<?xml version="1.0" encoding="utf-8"?>
<!-- Generator: Adobe Illustrator 23.0.3, SVG Export Plug-In . SVG Version: 6.00 Build 0)  -->
<svg version="1.1" id="Layer_1" xmlns="http://www.w3.org/2000/svg" xmlns:xlink="http://www.w3.org/1999/xlink" x="0px" y="0px"
	 viewBox="0 0 133 128.8" style="enable-background:new 0 0 133 128.8;" xml:space="preserve">
<style type="text/css">
	.st0{opacity:0.64;}
	.st1{fill:#FFFFFF;}
	.st2{fill:#3399FF;}
	.st3{stroke:#000000;stroke-width:2;stroke-linecap:square;stroke-miterlimit:10;}
	.st4{font-family:'Verdana';}
	.st5{font-size:29.9974px;}
	.st6{opacity:0.75;fill:#0071BC;enable-background:new    ;}
	.st7{font-size:29.9976px;}
	.st8{opacity:0.71;fill:#0071BC;enable-background:new    ;}
</style>
<title>mlcs_logo</title>
<g class="st0">
	<path class="st1" d="M59.4,6C45.2,6,33.5,16.2,32.9,29.3l-0.1,2.3l-2.5,0.3c-9.1,1.4-16,9.2-16.2,18.5C14.1,60.3,23,69,33.1,69H95
		v-2.6l2.6-0.3c10.2-1.2,21.1-9.5,21.1-20c0-11.3-9.2-20.1-21-20.1c-2.8,0-5.7,0.6-8.3,1.7L86,29l-0.7-3.3C82.8,14.3,72,6,59.4,6z"
		/>
	<path class="st2" d="M59.4,12c-2.7-0.1-5.4,0.3-8,1.2c-2.6,0.9-5,2.3-7,4c-2,1.8-3.6,3.9-4.8,6.3c-0.5,1.2-1,2.5-1.2,3.8
		c-0.2,0.6-0.2,1.3-0.3,2c0,0.2,0,0.3-0.1,0.6v0.6l-0.1,1.3v0.2c-0.2,2.4-2.1,4.3-4.5,4.6c-2,0.1-4,0.4-5.9,1.1
		c-1.7,0.7-3.3,1.8-4.6,3.1c-1.4,1.3-2.4,2.9-3.2,4.7c-0.7,1.7-1.1,3.6-1,5.4c0.2,3.9,2,7.6,4.9,10.1c1.5,1.3,3.2,2.4,5.1,3.1
		c0.5,0.2,0.9,0.3,1.4,0.4s1,0.2,1.5,0.3s1,0.1,1.5,0.1s1.2,0,1.8,0L95,66.4L92.4,69l0.1-2.6v-0.1c0-1.2,1-2.3,2.2-2.4l2.4-0.2
		c0.8-0.1,1.5-0.2,2.2-0.3c0.7-0.1,1.5-0.3,2.2-0.5l1.1-0.3l1-0.4c2.8-1.1,5.4-2.7,7.7-4.7c1.1-1,2.1-2.1,3-3.3
		c0.8-1.2,1.5-2.5,2-3.9c0.2-0.7,0.4-1.4,0.6-2.1c0.1-0.4,0.1-0.7,0.1-1.1c0-0.4,0.1-0.7,0.1-1.1c0-0.7,0-1.5-0.1-2.2l-0.2-1.1
		c0-0.4-0.2-0.7-0.2-1.1c-0.4-1.5-0.9-2.9-1.6-4.2c-0.7-1.3-1.6-2.6-2.6-3.7c-1-1.1-2.2-2.1-3.4-3c-1.3-0.8-2.7-1.5-4.1-2.1
		c-2.9-1.1-6.1-1.5-9.2-1.3c-1.6,0.2-3.1,0.5-4.6,1c-1.5,0.5-3.1,1.1-4.6,1.7l0,0c-0.4,0.1-0.8-0.1-1-0.5c0,0,0-0.1,0-0.1
		c-0.3-1.6-0.6-3.2-1-4.7c-0.4-1.5-0.9-3-1.6-4.4c-1.4-2.8-3.4-5.3-5.7-7.4C72.1,8.5,65.9,6.1,59.4,6V12z M59.4,6
		c6.5-0.1,12.9,2,18,6.1c2.6,2.1,4.7,4.6,6.3,7.5c0.8,1.5,1.4,3,1.9,4.6c0.5,1.6,0.8,3.2,1.2,4.7l-1.1-0.6c1.5-0.6,3-1.3,4.6-1.9
		c1.6-0.6,3.3-1,5-1.3c3.4-0.4,6.9-0.1,10.2,1c1.7,0.5,3.3,1.3,4.8,2.2c1.5,0.9,2.9,2,4.1,3.3c1.2,1.3,2.3,2.6,3.3,4.2
		c0.9,1.5,1.6,3.2,2.1,4.9c0.1,0.4,0.3,0.8,0.3,1.3l0.2,1.3c0.1,0.9,0.2,1.8,0.3,2.7c0,0.5,0,0.9,0,1.4c0,0.5,0,0.9-0.1,1.4
		c-0.1,0.9-0.3,1.8-0.6,2.7c-0.5,1.8-1.3,3.4-2.2,5c-1,1.5-2.1,2.9-3.4,4.2c-2.5,2.5-5.5,4.5-8.8,5.9l-1.2,0.5l-1.3,0.4
		c-0.8,0.3-1.7,0.5-2.6,0.8s-1.8,0.3-2.6,0.5l-2.4,0.3l2.2-2.5l0.1,2.6c0,1.4-1.1,2.5-2.4,2.6H95l-60.2,1.2c-0.6,0-1.2,0-1.9,0
		s-1.5,0-2.3-0.1s-1.5-0.2-2.3-0.3s-1.5-0.3-2.2-0.6c-2.9-0.9-5.6-2.4-7.9-4.3c-4.9-3.9-7.9-9.7-8.4-15.9c-0.2-3.2,0.2-6.3,1.3-9.3
		c2.2-5.9,6.7-10.8,12.4-13.5c0.7-0.3,1.5-0.6,2.2-0.9s1.5-0.5,2.3-0.7c1.8-0.4,2.8-0.5,4.1-0.7l-4.5,4.8V30v-0.6c0-0.2,0-0.5,0-0.7
		c0.1-1,0.1-2.1,0.3-3.1c0.3-2.1,0.9-4.1,1.7-6.1c1.6-3.9,4-7.4,7-10.4c3-2.9,6.6-5.2,10.5-6.7C51,0.8,55.2,0,59.4,0V6z"/>
</g>
<text transform="matrix(1.2519 0 0 1 14.1396 107.9512)" class="st3 st4 st5">ML</text>
<text transform="matrix(1.4323 0 0 1 66.5 109.3232)" class="st6 st4 st7">C</text>
<text transform="matrix(1.463 0 0 1 94.9785 109.3232)" class="st8 st4 st7">S</text>
</svg>
